<svg data-v-4cb75c86="" width="26" height="26" viewBox="0 0 26 26" fill="none" xmlns="http://www.w3.org/2000/svg"><g data-v-4cb75c86="" clip-path="url(#clip0_404_565)"><rect data-v-4cb75c86="" width="16" height="16" transform="translate(5 5)" fill="black"/> <path data-v-4cb75c86="" d="M13 0C5.824 0 0 5.824 0 13C0 20.176 5.824 26 13 26C20.176 26 26 20.176 26 13C26 5.824 20.176 0 13 0ZM17.589 14.339L13.689 18.239C13.494 18.434 13.247 18.525 13 18.525C12.753 18.525 12.506 18.434 12.311 18.239L8.411 14.339C8.034 13.962 8.034 13.338 8.411 12.961C8.788 12.584 9.412 12.584 9.789 12.961L12.025 15.197V8.45C12.025 7.917 12.467 7.475 13 7.475C13.533 7.475 13.975 7.917 13.975 8.45V15.197L16.211 12.961C16.588 12.584 17.212 12.584 17.589 12.961C17.966 13.338 17.966 13.962 17.589 14.339Z" fill="#AAAAAA"/></g> <defs data-v-4cb75c86=""><clipPath data-v-4cb75c86="" id="clip0_404_565"><rect data-v-4cb75c86="" width="26" height="26" rx="13" fill="white"/></clipPath></defs></svg>